<mxfile host="app.diagrams.net" modified="2022-08-11T20:19:17.694Z" agent="5.0 (Windows NT 10.0; Win64; x64) AppleWebKit/537.36 (KHTML, like Gecko) Chrome/104.0.0.0 Safari/537.36" etag="5OHfmEdctWOBuoYwgq_9" version="20.2.3" type="github">
  <diagram id="oY5NQ78IlrKESVS0pg0i" name="Página-1">
    <mxGraphModel dx="1038" dy="585" grid="1" gridSize="10" guides="1" tooltips="1" connect="1" arrows="1" fold="1" page="1" pageScale="1" pageWidth="827" pageHeight="1169" math="0" shadow="0">
      <root>
        <mxCell id="0" />
        <mxCell id="1" parent="0" />
        <mxCell id="g_dE5TMBteJ-dvERz9lI-8" style="edgeStyle=orthogonalEdgeStyle;rounded=0;orthogonalLoop=1;jettySize=auto;html=1;exitX=0.5;exitY=1;exitDx=0;exitDy=0;fillColor=#dae8fc;gradientColor=#7ea6e0;strokeColor=#99FFCC;" edge="1" parent="1" source="g_dE5TMBteJ-dvERz9lI-1">
          <mxGeometry relative="1" as="geometry">
            <mxPoint x="414" y="130" as="targetPoint" />
            <Array as="points">
              <mxPoint x="414" y="100" />
            </Array>
          </mxGeometry>
        </mxCell>
        <mxCell id="g_dE5TMBteJ-dvERz9lI-1" value="Início" style="ellipse;whiteSpace=wrap;html=1;fontFamily=Comic Sans MS;labelBorderColor=none;labelBackgroundColor=none;fillColor=#DAE8FC;strokeColor=#DAE8FC;gradientColor=#99FFCC;" vertex="1" parent="1">
          <mxGeometry x="354" y="20" width="120" height="80" as="geometry" />
        </mxCell>
        <mxCell id="g_dE5TMBteJ-dvERz9lI-12" style="edgeStyle=orthogonalEdgeStyle;rounded=0;orthogonalLoop=1;jettySize=auto;html=1;entryX=0.5;entryY=0;entryDx=0;entryDy=0;strokeColor=#99FFCC;" edge="1" parent="1" source="g_dE5TMBteJ-dvERz9lI-10" target="g_dE5TMBteJ-dvERz9lI-11">
          <mxGeometry relative="1" as="geometry">
            <mxPoint x="415" y="250" as="targetPoint" />
          </mxGeometry>
        </mxCell>
        <mxCell id="g_dE5TMBteJ-dvERz9lI-10" value="Qual a data&lt;br&gt;do evento&lt;br&gt;escolhido?" style="rhombus;whiteSpace=wrap;html=1;fontFamily=Comic Sans MS;fillColor=#DAE8FC;strokeColor=#DAE8FC;gradientColor=#99FFCC;" vertex="1" parent="1">
          <mxGeometry x="360" y="130" width="110" height="100" as="geometry" />
        </mxCell>
        <mxCell id="g_dE5TMBteJ-dvERz9lI-13" style="edgeStyle=orthogonalEdgeStyle;rounded=0;orthogonalLoop=1;jettySize=auto;html=1;entryX=0;entryY=0.5;entryDx=0;entryDy=0;entryPerimeter=0;strokeColor=#99FFCC;" edge="1" parent="1" source="g_dE5TMBteJ-dvERz9lI-11">
          <mxGeometry relative="1" as="geometry">
            <mxPoint x="570" y="290" as="targetPoint" />
            <Array as="points" />
          </mxGeometry>
        </mxCell>
        <mxCell id="g_dE5TMBteJ-dvERz9lI-19" style="edgeStyle=orthogonalEdgeStyle;rounded=0;orthogonalLoop=1;jettySize=auto;html=1;strokeColor=#99FFCC;" edge="1" parent="1" source="g_dE5TMBteJ-dvERz9lI-11">
          <mxGeometry relative="1" as="geometry">
            <mxPoint x="415" y="370" as="targetPoint" />
          </mxGeometry>
        </mxCell>
        <mxCell id="g_dE5TMBteJ-dvERz9lI-11" value="A data é posterior ao dia&lt;br&gt;de hoje?" style="rounded=0;whiteSpace=wrap;html=1;fontFamily=Comic Sans MS;fillColor=#dae8fc;gradientColor=#99FFCC;strokeColor=#DAE8FC;" vertex="1" parent="1">
          <mxGeometry x="335" y="260" width="160" height="60" as="geometry" />
        </mxCell>
        <mxCell id="g_dE5TMBteJ-dvERz9lI-14" value="NÃO" style="text;html=1;strokeColor=none;fillColor=none;align=center;verticalAlign=middle;whiteSpace=wrap;rounded=0;fontFamily=Comic Sans MS;" vertex="1" parent="1">
          <mxGeometry x="500" y="260" width="60" height="30" as="geometry" />
        </mxCell>
        <mxCell id="g_dE5TMBteJ-dvERz9lI-20" value="SIM" style="text;html=1;strokeColor=none;fillColor=none;align=center;verticalAlign=middle;whiteSpace=wrap;rounded=0;fontFamily=Comic Sans MS;" vertex="1" parent="1">
          <mxGeometry x="360" y="330" width="60" height="30" as="geometry" />
        </mxCell>
        <mxCell id="g_dE5TMBteJ-dvERz9lI-22" style="edgeStyle=orthogonalEdgeStyle;rounded=0;orthogonalLoop=1;jettySize=auto;html=1;strokeColor=#99FFCC;" edge="1" parent="1" source="g_dE5TMBteJ-dvERz9lI-21">
          <mxGeometry relative="1" as="geometry">
            <mxPoint x="415" y="520" as="targetPoint" />
          </mxGeometry>
        </mxCell>
        <mxCell id="g_dE5TMBteJ-dvERz9lI-21" value="Data de nascimento:" style="rhombus;whiteSpace=wrap;html=1;fontFamily=Comic Sans MS;fillColor=#DAE8FC;gradientColor=#99FFCC;strokeColor=#DAE8FC;" vertex="1" parent="1">
          <mxGeometry x="360" y="370" width="110" height="100" as="geometry" />
        </mxCell>
        <mxCell id="g_dE5TMBteJ-dvERz9lI-27" value="NÃO" style="text;html=1;strokeColor=none;fillColor=none;align=center;verticalAlign=middle;whiteSpace=wrap;rounded=0;fontFamily=Comic Sans MS;" vertex="1" parent="1">
          <mxGeometry x="294" y="517.5" width="60" height="30" as="geometry" />
        </mxCell>
        <mxCell id="g_dE5TMBteJ-dvERz9lI-28" value="SIM" style="text;html=1;strokeColor=none;fillColor=none;align=center;verticalAlign=middle;whiteSpace=wrap;rounded=0;fontFamily=Comic Sans MS;" vertex="1" parent="1">
          <mxGeometry x="360" y="600" width="60" height="30" as="geometry" />
        </mxCell>
        <mxCell id="g_dE5TMBteJ-dvERz9lI-29" value="Acesso negado/Participante&lt;br&gt;Menor de idade" style="shape=display;whiteSpace=wrap;html=1;fontFamily=Comic Sans MS;fillColor=#dae8fc;gradientColor=#99FFCC;strokeColor=#DAE8FC;" vertex="1" parent="1">
          <mxGeometry x="110" y="512.5" width="180" height="70" as="geometry" />
        </mxCell>
        <mxCell id="g_dE5TMBteJ-dvERz9lI-31" value="Data inválida" style="shape=display;whiteSpace=wrap;html=1;fontFamily=Comic Sans MS;fillColor=#DAE8FC;gradientColor=#99FFCC;strokeColor=#DAE8FC;" vertex="1" parent="1">
          <mxGeometry x="570" y="265" width="130" height="50" as="geometry" />
        </mxCell>
        <mxCell id="g_dE5TMBteJ-dvERz9lI-34" style="edgeStyle=orthogonalEdgeStyle;rounded=0;orthogonalLoop=1;jettySize=auto;html=1;strokeColor=#99FFCC;" edge="1" parent="1" source="g_dE5TMBteJ-dvERz9lI-33">
          <mxGeometry relative="1" as="geometry">
            <mxPoint x="415" y="640" as="targetPoint" />
          </mxGeometry>
        </mxCell>
        <mxCell id="g_dE5TMBteJ-dvERz9lI-35" style="edgeStyle=orthogonalEdgeStyle;rounded=0;orthogonalLoop=1;jettySize=auto;html=1;strokeColor=#99FFCC;" edge="1" parent="1" source="g_dE5TMBteJ-dvERz9lI-33">
          <mxGeometry relative="1" as="geometry">
            <mxPoint x="290" y="550" as="targetPoint" />
          </mxGeometry>
        </mxCell>
        <mxCell id="g_dE5TMBteJ-dvERz9lI-33" value="Participante tem 18 anos ou mais?" style="rounded=0;whiteSpace=wrap;html=1;fontFamily=Comic Sans MS;fillColor=#DAE8FC;gradientColor=#99FFCC;strokeColor=#DAE8FC;" vertex="1" parent="1">
          <mxGeometry x="350" y="517.5" width="130" height="65" as="geometry" />
        </mxCell>
        <mxCell id="g_dE5TMBteJ-dvERz9lI-37" style="edgeStyle=orthogonalEdgeStyle;rounded=0;orthogonalLoop=1;jettySize=auto;html=1;strokeColor=#99FFCC;" edge="1" parent="1" source="g_dE5TMBteJ-dvERz9lI-36">
          <mxGeometry relative="1" as="geometry">
            <mxPoint x="415" y="740" as="targetPoint" />
          </mxGeometry>
        </mxCell>
        <mxCell id="g_dE5TMBteJ-dvERz9lI-36" value="Listar participantes e&lt;br&gt;palestrantes" style="shape=parallelogram;perimeter=parallelogramPerimeter;whiteSpace=wrap;html=1;fixedSize=1;fontFamily=Comic Sans MS;fillColor=#dae8fc;gradientColor=#99FFCC;strokeColor=#DAE8FC;" vertex="1" parent="1">
          <mxGeometry x="332" y="640" width="166" height="60" as="geometry" />
        </mxCell>
        <mxCell id="g_dE5TMBteJ-dvERz9lI-41" style="edgeStyle=orthogonalEdgeStyle;rounded=0;orthogonalLoop=1;jettySize=auto;html=1;strokeColor=#99FFCC;" edge="1" parent="1" source="g_dE5TMBteJ-dvERz9lI-38">
          <mxGeometry relative="1" as="geometry">
            <mxPoint x="570" y="800" as="targetPoint" />
            <Array as="points">
              <mxPoint x="570" y="800" />
            </Array>
          </mxGeometry>
        </mxCell>
        <mxCell id="g_dE5TMBteJ-dvERz9lI-44" style="edgeStyle=orthogonalEdgeStyle;rounded=0;orthogonalLoop=1;jettySize=auto;html=1;entryX=0.5;entryY=0;entryDx=0;entryDy=0;entryPerimeter=0;strokeColor=#99FFCC;" edge="1" parent="1" source="g_dE5TMBteJ-dvERz9lI-38" target="g_dE5TMBteJ-dvERz9lI-50">
          <mxGeometry relative="1" as="geometry">
            <mxPoint x="415" y="905" as="targetPoint" />
          </mxGeometry>
        </mxCell>
        <mxCell id="g_dE5TMBteJ-dvERz9lI-38" value="Quantidade de participantes inferior a 100?" style="rhombus;whiteSpace=wrap;html=1;fontFamily=Comic Sans MS;fillColor=#dae8fc;gradientColor=#99FFCC;strokeColor=#DAE8FC;" vertex="1" parent="1">
          <mxGeometry x="350" y="740" width="130" height="120" as="geometry" />
        </mxCell>
        <mxCell id="g_dE5TMBteJ-dvERz9lI-43" value="NÃO" style="text;html=1;align=center;verticalAlign=middle;whiteSpace=wrap;rounded=0;fontFamily=Comic Sans MS;" vertex="1" parent="1">
          <mxGeometry x="500" y="772.5" width="60" height="30" as="geometry" />
        </mxCell>
        <mxCell id="g_dE5TMBteJ-dvERz9lI-46" value="SIM" style="text;html=1;align=center;verticalAlign=middle;whiteSpace=wrap;rounded=0;fontFamily=Comic Sans MS;" vertex="1" parent="1">
          <mxGeometry x="354" y="860" width="60" height="30" as="geometry" />
        </mxCell>
        <mxCell id="g_dE5TMBteJ-dvERz9lI-47" value="Limite excedido" style="shape=display;whiteSpace=wrap;html=1;fillColor=#dae8fc;gradientColor=#99FFCC;strokeColor=#DAE8FC;" vertex="1" parent="1">
          <mxGeometry x="575" y="772.5" width="125" height="55" as="geometry" />
        </mxCell>
        <mxCell id="g_dE5TMBteJ-dvERz9lI-51" style="edgeStyle=orthogonalEdgeStyle;rounded=0;orthogonalLoop=1;jettySize=auto;html=1;strokeColor=#99FFCC;" edge="1" parent="1" source="g_dE5TMBteJ-dvERz9lI-50" target="g_dE5TMBteJ-dvERz9lI-52">
          <mxGeometry relative="1" as="geometry">
            <mxPoint x="415" y="1020" as="targetPoint" />
          </mxGeometry>
        </mxCell>
        <mxCell id="g_dE5TMBteJ-dvERz9lI-50" value="Cadastro realizado com sucesso" style="shape=display;whiteSpace=wrap;html=1;fontFamily=Comic Sans MS;fillColor=#dae8fc;gradientColor=#99FFCC;strokeColor=#DAE8FC;" vertex="1" parent="1">
          <mxGeometry x="332" y="910" width="166" height="60" as="geometry" />
        </mxCell>
        <mxCell id="g_dE5TMBteJ-dvERz9lI-52" value="FIM" style="ellipse;shape=cloud;whiteSpace=wrap;html=1;fontFamily=Comic Sans MS;fillColor=#dae8fc;gradientColor=#99FFCC;strokeColor=#DAE8FC;" vertex="1" parent="1">
          <mxGeometry x="340" y="1010" width="150" height="90" as="geometry" />
        </mxCell>
      </root>
    </mxGraphModel>
  </diagram>
</mxfile>
